
<svg xmlns="http://www.w3.org/2000/svg" viewBox="0 0 500 500" fill="none" stroke="rgba(149, 46, 191, 0.5)" stroke-width="0.8">
  <!-- Основные алхимические символы -->
  <path d="M100 100 L100 140 M80 120 L120 120" /> <!-- Крест -->
  <circle cx="250" cy="120" r="20" /> <!-- Круг -->
  <path d="M380 120 L420 120 L400 100 L380 120 Z" /> <!-- Треугольник -->
  
  <path d="M100 200 A20 20 0 1 0 100 240 A20 20 0 1 0 100 200 Z" /> <!-- Бесконечность -->
  <path d="M250 200 L250 240 L235 225 M250 240 L265 225" /> <!-- Сера -->
  <path d="M400 210 A10 10 0 1 0 400 230 A10 10 0 1 0 400 230 L400 250" /> <!-- Меркурий -->
  
  <path d="M100 300 L120 300 M110 290 L110 310 M90 300 A20 20 0 0 0 130 300" /> <!-- Медь/Венера -->
  <circle cx="250" cy="300" r="15" />
  <path d="M250 285 L250 270 M235 300 L265 300" /> <!-- Соль -->
  <path d="M400 300 L400 320 L380 320 L380 300 L400 300 Z" /> <!-- Квадрат -->
  
  <path d="M100 380 L130 380 L115 350 Z" /> <!-- Огонь -->
  <path d="M250 350 L250 380 M240 360 L260 360" /> <!-- Земля -->
  <path d="M400 380 L400 350 M390 365 L410 365" /> <!-- Воздух -->
  
  <!-- Дополнительные символы -->
  <path d="M170 170 A15 15 0 1 0 170 200 L185 215" /> <!-- Сатурн -->
  <path d="M325 170 L325 200 M315 180 L335 180" /> <!-- Юпитер -->
  <path d="M170 240 L190 260 M190 240 L170 260" /> <!-- Звезда Хаоса -->
  <path d="M325 240 L345 260 M345 240 L325 260 M335 230 L335 270" /> <!-- Звезда -->
</svg>
