
<svg xmlns="http://www.w3.org/2000/svg" viewBox="0 0 300 300" fill="none" stroke="rgba(149, 46, 191, 0.7)" stroke-width="0.8">
  <!-- Руны Старшего Футарка -->
  <path d="M20 20 L20 80 M20 50 L40 20 L40 80" /> <!-- Ansuz -->
  <path d="M60 20 L60 80 M60 20 L80 50 M60 50 L80 80" /> <!-- Kenaz -->
  <path d="M100 20 L100 80 M100 20 L120 20 M100 50 L120 50" /> <!-- Ehwaz -->
  <path d="M140 20 L160 20 L160 80 L140 80 Z" /> <!-- Berkano -->
  <path d="M180 20 L180 80 M180 20 L200 40 M180 40 L200 60 M180 60 L200 80" /> <!-- Algiz -->
  <path d="M220 20 L220 80 M220 20 L240 80 M220 80 L240 20" /> <!-- Dagaz -->
  <path d="M260 20 L260 80 M260 20 L280 50 M260 50 L280 20" /> <!-- Thurisaz -->
  
  <path d="M20 100 L40 100 L40 160 L20 160 Z" /> <!-- Ingwaz -->
  <path d="M60 100 L80 100 M60 160 L80 160 M70 100 L70 160" /> <!-- Mannaz -->
  <path d="M100 100 L120 130 L100 160" /> <!-- Laguz -->
  <path d="M140 100 L140 160 M140 100 L160 160 M140 130 L155 130" /> <!-- Raido -->
  <path d="M180 100 L180 160 M180 100 L200 100 M180 130 L200 130" /> <!-- Eihwaz -->
  <path d="M220 100 L240 130 L220 160 M220 130 L240 100" /> <!-- Hagalaz -->
  <path d="M260 100 L260 160 M260 100 L280 100" /> <!-- Tiwaz -->
  
  <path d="M20 180 L40 210 L20 240" /> <!-- Wunjo -->
  <path d="M60 180 L60 240 M60 180 L80 180 M60 210 L80 210" /> <!-- Fehu -->
  <path d="M100 180 L120 180 M100 240 L120 240 M100 180 L100 240 M120 180 L120 240" /> <!-- Othala -->
  <path d="M140 180 L160 210 L140 240 M140 210 L160 240" /> <!-- Sowilo -->
  <path d="M180 180 L180 240 M180 210 L200 240 M180 210 L200 180" /> <!-- Gebo -->
  <path d="M220 180 L240 180 M220 240 L240 240 M230 180 L230 240" /> <!-- Uruz -->
  <path d="M260 180 L280 210 L260 240" /> <!-- Isa -->
  
  <path d="M20 260 L40 260 L40 290 L20 290 M20 260 L20 290" /> <!-- Perthro -->
  <path d="M60 260 L80 260 M60 290 L80 290 M60 260 L60 290 M80 260 L80 290" /> <!-- Jera -->
  <path d="M100 260 L120 275 L100 290" /> <!-- Kaunaz -->
  <path d="M140 260 L140 290 M140 260 L160 290 M140 290 L160 260" /> <!-- Teiwaz -->
  <path d="M180 260 L180 290 M180 260 L200 260" /> <!-- Nauthiz -->
  <path d="M220 260 L240 290 M240 260 L220 290" /> <!-- Gyfu -->
  <path d="M260 260 L280 260 L280 275 L260 275 L260 290 L280 290" /> <!-- Eolh -->
</svg>
