
<svg xmlns="http://www.w3.org/2000/svg" width="400" height="400" viewBox="0 0 400 400">
  <g fill="rgba(255, 255, 255, 0.7)">
    <!-- Множество звезд разных размеров -->
    <circle cx="20" cy="30" r="0.8" />
    <circle cx="50" cy="70" r="0.6" />
    <circle cx="100" cy="20" r="0.7" />
    <circle cx="150" cy="90" r="0.9" />
    <circle cx="200" cy="40" r="0.7" />
    <circle cx="250" cy="120" r="0.8" />
    <circle cx="300" cy="60" r="0.6" />
    <circle cx="350" cy="30" r="0.7" />
    <circle cx="380" cy="90" r="0.8" />
    <circle cx="30" cy="140" r="0.7" />
    <circle cx="80" cy="180" r="0.6" />
    <circle cx="130" cy="140" r="0.9" />
    <circle cx="180" cy="200" r="0.7" />
    <circle cx="230" cy="160" r="0.8" />
    <circle cx="280" cy="220" r="0.6" />
    <circle cx="330" cy="180" r="0.7" />
    <circle cx="370" cy="240" r="0.8" />
    <circle cx="40" cy="280" r="0.6" />
    <circle cx="90" cy="250" r="0.7" />
    <circle cx="140" cy="310" r="0.9" />
    <circle cx="190" cy="270" r="0.7" />
    <circle cx="240" cy="330" r="0.8" />
    <circle cx="290" cy="290" r="0.6" />
    <circle cx="340" cy="350" r="0.7" />
    <circle cx="390" cy="310" r="0.8" />
    <circle cx="60" cy="360" r="0.7" />
    <circle cx="110" cy="370" r="0.6" />
    <circle cx="160" cy="380" r="0.9" />
    <circle cx="210" cy="390" r="0.7" />
    <circle cx="260" cy="360" r="0.8" />
    <circle cx="310" cy="370" r="0.6" />
    <circle cx="360" cy="380" r="0.7" />
    
    <!-- Несколько ярких звезд -->
    <circle cx="75" cy="55" r="1.2" />
    <circle cx="175" cy="125" r="1.1" />
    <circle cx="275" cy="75" r="1.3" />
    <circle cx="125" cy="225" r="1.2" />
    <circle cx="225" cy="175" r="1.1" />
    <circle cx="325" cy="255" r="1.3" />
    <circle cx="75" cy="325" r="1.2" />
    <circle cx="175" cy="295" r="1.1" />
    <circle cx="275" cy="345" r="1.3" />
  </g>
</svg>
